<svg width="24" height="24" viewBox="0 0 24 24" fill="none" xmlns="http://www.w3.org/2000/svg">
<g id="Copyright 1" clip-path="url(#clip0_233_622)">
<g id="Group">
<path id="Vector" d="M11.9998 0.00195312C5.38347 0.00195312 0 5.38275 0 12.0007C0 18.6161 5.38347 23.9996 11.9998 23.9996C18.6169 23.9996 24 18.6161 24 12.0007C24 5.38275 18.6169 0.00195312 11.9998 0.00195312ZM11.9998 21.3263C6.85691 21.3263 2.67335 17.143 2.67335 12.0008C2.67335 6.85644 6.85691 2.67315 11.9998 2.67315C17.1432 2.67315 21.3268 6.85651 21.3268 12.0008C21.3267 17.143 17.1432 21.3263 11.9998 21.3263Z" fill="#FEFBFB" fill-opacity="0.7"/>
<path id="Vector_2" d="M15.9382 14.1744C15.1716 15.4899 13.7462 16.3059 12.2183 16.3059C9.84554 16.3059 7.91282 14.3736 7.91282 12.0008C7.91282 9.62607 9.84554 7.69317 12.2183 7.69317C13.7462 7.69317 15.1716 8.51218 15.9382 9.82501L16.0372 9.99659H18.9293L18.7557 9.53098C18.2524 8.19777 17.3694 7.06421 16.2005 6.25513C15.0287 5.44395 13.6522 5.01361 12.2183 5.01361C8.36609 5.01361 5.2334 8.14898 5.2334 12.0008C5.2334 15.8529 8.36609 18.9853 12.2183 18.9853C13.6522 18.9853 15.0286 18.5564 16.2005 17.744C17.3694 16.9347 18.2524 15.8016 18.7557 14.4684L18.9293 14.0025H16.0372L15.9382 14.1744Z" fill="#FEFBFB" fill-opacity="0.7"/>
</g>
</g>
<defs>
<clipPath id="clip0_233_622">
<rect width="24" height="24" fill="white"/>
</clipPath>
</defs>
</svg>
