<svg width="84" height="22" viewBox="0 0 84 22" fill="none" xmlns="http://www.w3.org/2000/svg">
<path d="M8.172 6.86C8.884 6.86 9.576 7 10.248 7.28C10.92 7.56 11.472 8.008 11.904 8.624C12.344 9.24 12.564 10.044 12.564 11.036V17H8.304V11.72C8.304 11.12 8.16 10.66 7.872 10.34C7.584 10.012 7.2 9.848 6.72 9.848C6.408 9.848 6.116 9.928 5.844 10.088C5.572 10.248 5.352 10.472 5.184 10.76C5.024 11.048 4.944 11.384 4.944 11.768V17H0.696V7.148H4.944V8.48C5.048 8.216 5.252 7.964 5.556 7.724C5.86 7.476 6.24 7.272 6.696 7.112C7.152 6.944 7.644 6.86 8.172 6.86ZM18.6109 21.992H14.4109V7.148H18.6469V8.432C18.7749 8.216 18.9909 7.988 19.2949 7.748C19.6069 7.5 19.9989 7.292 20.4709 7.124C20.9429 6.948 21.4709 6.86 22.0549 6.86C23.0309 6.86 23.8549 7.104 24.5269 7.592C25.2069 8.072 25.7229 8.708 26.0749 9.5C26.4349 10.292 26.6149 11.152 26.6149 12.08C26.6149 13.008 26.4229 13.868 26.0389 14.66C25.6549 15.452 25.1109 16.088 24.4069 16.568C23.7029 17.048 22.8629 17.288 21.8869 17.288C21.2229 17.288 20.6589 17.176 20.1949 16.952C19.7389 16.72 19.3789 16.464 19.1149 16.184C18.8589 15.896 18.6909 15.676 18.6109 15.524V21.992ZM22.4629 12.08C22.4629 11.728 22.3789 11.408 22.2109 11.12C22.0509 10.824 21.8269 10.592 21.5389 10.424C21.2509 10.248 20.9269 10.16 20.5669 10.16C20.1909 10.16 19.8589 10.248 19.5709 10.424C19.2829 10.592 19.0549 10.824 18.8869 11.12C18.7269 11.408 18.6469 11.728 18.6469 12.08C18.6469 12.432 18.7269 12.756 18.8869 13.052C19.0549 13.34 19.2829 13.568 19.5709 13.736C19.8589 13.904 20.1909 13.988 20.5669 13.988C20.9269 13.988 21.2509 13.904 21.5389 13.736C21.8269 13.568 22.0509 13.34 22.2109 13.052C22.3789 12.756 22.4629 12.432 22.4629 12.08ZM32.6424 6.86C33.2344 6.86 33.7824 6.916 34.2864 7.028C34.7904 7.132 35.2144 7.252 35.5584 7.388C35.9104 7.524 36.1424 7.64 36.2544 7.736L35.2104 9.572C35.0504 9.444 34.7624 9.292 34.3464 9.116C33.9384 8.94 33.4824 8.852 32.9784 8.852C32.5224 8.852 32.1384 8.932 31.8264 9.092C31.5144 9.244 31.3584 9.476 31.3584 9.788C31.3584 10.1 31.5264 10.348 31.8624 10.532C32.1984 10.716 32.6664 10.876 33.2664 11.012C33.7704 11.116 34.2664 11.276 34.7544 11.492C35.2424 11.7 35.6464 12.004 35.9664 12.404C36.2864 12.796 36.4464 13.32 36.4464 13.976C36.4464 14.624 36.3064 15.164 36.0264 15.596C35.7544 16.02 35.3904 16.356 34.9344 16.604C34.4784 16.852 33.9784 17.028 33.4344 17.132C32.8904 17.236 32.3504 17.288 31.8144 17.288C31.1184 17.288 30.5064 17.22 29.9784 17.084C29.4504 16.956 29.0144 16.808 28.6704 16.64C28.3344 16.464 28.0944 16.316 27.9504 16.196L28.9944 14.156C29.2024 14.34 29.5424 14.544 30.0144 14.768C30.4944 14.984 31.0104 15.092 31.5624 15.092C32.1384 15.092 32.5904 14.992 32.9184 14.792C33.2544 14.592 33.4224 14.324 33.4224 13.988C33.4224 13.74 33.3424 13.54 33.1824 13.388C33.0224 13.228 32.8024 13.096 32.5224 12.992C32.2424 12.888 31.9144 12.796 31.5384 12.716C31.1944 12.644 30.8424 12.54 30.4824 12.404C30.1224 12.26 29.7864 12.072 29.4744 11.84C29.1624 11.608 28.9104 11.32 28.7184 10.976C28.5264 10.624 28.4304 10.204 28.4304 9.716C28.4304 9.092 28.6304 8.572 29.0304 8.156C29.4304 7.732 29.9504 7.412 30.5904 7.196C31.2304 6.972 31.9144 6.86 32.6424 6.86ZM36.6165 7.148H38.3925V3.104H41.4165V7.148H43.7445V9.68H41.4165V13.244C41.4165 13.716 41.4925 14.084 41.6445 14.348C41.7965 14.604 42.0365 14.732 42.3645 14.732C42.6125 14.732 42.8165 14.684 42.9765 14.588C43.1365 14.484 43.2325 14.412 43.2645 14.372L44.3445 16.556C44.2965 16.604 44.1405 16.688 43.8765 16.808C43.6205 16.928 43.2885 17.036 42.8805 17.132C42.4805 17.236 42.0285 17.288 41.5245 17.288C40.6205 17.288 39.8725 17.028 39.2805 16.508C38.6885 15.98 38.3925 15.164 38.3925 14.06V9.68H36.6165V7.148ZM49.7466 17.288C48.6986 17.288 47.7626 17.064 46.9386 16.616C46.1226 16.168 45.4826 15.556 45.0186 14.78C44.5546 13.996 44.3226 13.104 44.3226 12.104C44.3226 11.104 44.5546 10.212 45.0186 9.428C45.4826 8.636 46.1226 8.012 46.9386 7.556C47.7626 7.092 48.6986 6.86 49.7466 6.86C50.8026 6.86 51.7346 7.092 52.5426 7.556C53.3506 8.012 53.9826 8.636 54.4386 9.428C54.8946 10.212 55.1226 11.104 55.1226 12.104C55.1226 13.104 54.8946 13.996 54.4386 14.78C53.9826 15.556 53.3506 16.168 52.5426 16.616C51.7346 17.064 50.8026 17.288 49.7466 17.288ZM49.7466 14.756C50.2506 14.756 50.6866 14.644 51.0546 14.42C51.4306 14.188 51.7186 13.872 51.9186 13.472C52.1266 13.064 52.2306 12.604 52.2306 12.092C52.2306 11.58 52.1266 11.12 51.9186 10.712C51.7186 10.304 51.4306 9.984 51.0546 9.752C50.6866 9.512 50.2506 9.392 49.7466 9.392C49.2426 9.392 48.8026 9.512 48.4266 9.752C48.0586 9.984 47.7706 10.304 47.5626 10.712C47.3546 11.12 47.2506 11.58 47.2506 12.092C47.2506 12.604 47.3546 13.064 47.5626 13.472C47.7706 13.872 48.0586 14.188 48.4266 14.42C48.8026 14.644 49.2426 14.756 49.7466 14.756ZM61.2844 14.864C61.8044 14.864 62.2284 14.776 62.5564 14.6C62.8844 14.424 63.1004 14.292 63.2044 14.204L64.6204 16.304C64.5084 16.392 64.3004 16.516 63.9964 16.676C63.6924 16.836 63.3044 16.976 62.8324 17.096C62.3684 17.224 61.8364 17.288 61.2364 17.288C60.1964 17.288 59.2644 17.08 58.4404 16.664C57.6164 16.24 56.9644 15.64 56.4844 14.864C56.0124 14.08 55.7764 13.148 55.7764 12.068C55.7764 10.98 56.0124 10.048 56.4844 9.272C56.9644 8.496 57.6164 7.9 58.4404 7.484C59.2644 7.068 60.1964 6.86 61.2364 6.86C61.8284 6.86 62.3524 6.924 62.8084 7.052C63.2724 7.18 63.6604 7.328 63.9724 7.496C64.2844 7.656 64.5004 7.788 64.6204 7.892L63.1684 10.004C63.1124 9.94 63.0044 9.852 62.8444 9.74C62.6844 9.628 62.4724 9.524 62.2084 9.428C61.9524 9.332 61.6444 9.284 61.2844 9.284C60.8444 9.284 60.4244 9.4 60.0244 9.632C59.6324 9.864 59.3124 10.188 59.0644 10.604C58.8164 11.02 58.6924 11.508 58.6924 12.068C58.6924 12.628 58.8164 13.12 59.0644 13.544C59.3124 13.96 59.6324 14.284 60.0244 14.516C60.4244 14.748 60.8444 14.864 61.2844 14.864ZM71.8294 7.148H75.3334L70.5214 11.852L75.7654 17H72.1774L68.0854 12.884V17H65.0374V0.487999H68.0854V10.76L71.8294 7.148ZM80.1081 6.86C80.7001 6.86 81.2481 6.916 81.7521 7.028C82.2561 7.132 82.6801 7.252 83.0241 7.388C83.3761 7.524 83.6081 7.64 83.7201 7.736L82.6761 9.572C82.5161 9.444 82.2281 9.292 81.8121 9.116C81.4041 8.94 80.9481 8.852 80.4441 8.852C79.9881 8.852 79.6041 8.932 79.2921 9.092C78.9801 9.244 78.8241 9.476 78.8241 9.788C78.8241 10.1 78.9921 10.348 79.3281 10.532C79.6641 10.716 80.1321 10.876 80.7321 11.012C81.2361 11.116 81.7321 11.276 82.2201 11.492C82.7081 11.7 83.1121 12.004 83.4321 12.404C83.7521 12.796 83.9121 13.32 83.9121 13.976C83.9121 14.624 83.7721 15.164 83.4921 15.596C83.2201 16.02 82.8561 16.356 82.4001 16.604C81.9441 16.852 81.4441 17.028 80.9001 17.132C80.3561 17.236 79.8161 17.288 79.2801 17.288C78.5841 17.288 77.9721 17.22 77.4441 17.084C76.9161 16.956 76.4801 16.808 76.1361 16.64C75.8001 16.464 75.5601 16.316 75.4161 16.196L76.4601 14.156C76.6681 14.34 77.0081 14.544 77.4801 14.768C77.9601 14.984 78.4761 15.092 79.0281 15.092C79.6041 15.092 80.0561 14.992 80.3841 14.792C80.7201 14.592 80.8881 14.324 80.8881 13.988C80.8881 13.74 80.8081 13.54 80.6481 13.388C80.4881 13.228 80.2681 13.096 79.9881 12.992C79.7081 12.888 79.3801 12.796 79.0041 12.716C78.6601 12.644 78.3081 12.54 77.9481 12.404C77.5881 12.26 77.2521 12.072 76.9401 11.84C76.6281 11.608 76.3761 11.32 76.1841 10.976C75.9921 10.624 75.8961 10.204 75.8961 9.716C75.8961 9.092 76.0961 8.572 76.4961 8.156C76.8961 7.732 77.4161 7.412 78.0561 7.196C78.6961 6.972 79.3801 6.86 80.1081 6.86Z" fill="black"/>
</svg>
